<svg xmlns="http://www.w3.org/2000/svg" width="1200" height="1200" viewBox="0 0 1200 1200">
  <defs>
    <style>
      .newt-cls-1 {
        fill: #dbc927;
      }

      .newt-cls-1, .newt-cls-2 {
        stroke: #000;
        stroke-width: 1px;
      }

      .newt-cls-2 {
        fill-rule: evenodd;
      }
    </style>
  </defs>
  <rect id="background" class="newt-cls-1" width="1199" height="1200"/>
  <path id="newt" class="newt-cls-2" d="M667.863,175.121c10.093,35.174,11.542,59.962,32.618,69.6,23.153,10.582,67.477,27.317,93.506,58.72,47.6,57.426,35.838,98.565-23.92,191.387,110.9,54.027,200.4,103.485,287.043,182.687,74.47,68.079,130.16,169.679,163.09,265.331,39.7-.86,69.49-0.818,104.38,0,12.29,0.288,45.86,7.155,67.41,21.748,31.66,21.439,43.64,49.071,60.89,65.241,11.72,11,26.83,4.43,30.44-6.52,3.42-10.38,30.86-87.744,41.32-106.567,7.81-14.07,16.8-6.529,15.22,8.7-2.9,27.776-9.22,53.4-10.88,84.818-1.05,20,21.86,27.39,39.15,26.1,43.73-3.27,77.66-18.09,106.55-23.92,19.99-4.04,26.44,5.32,8.7,17.39-21.85,14.87-86.13,49.98-115.25,73.95-6.25,5.14-10.73,23.93-2.18,30.45,26.58,20.25,50.76,33.7,69.59,47.84,5.7,4.29,17.74,19.09-13.05,10.88-42.26-11.27-149.26-62.24-182.66-73.95-59.42-20.81-113.56-22.64-178.32-13.05,45.75,195.17,94.36,395.21,228.33,506.74,222.76,185.44,254.31,123.91,408.82,204.44,88.79,46.27,149.95,101.72,206.58,180.51,50.52,70.29,65.31,137.35,71.76,228.36-30.26-91.9-62.86-170.85-134.82-241.41-55.34-54.26-160.19-112.31-274-126.14-99.77-12.12-233.96-55.33-332.7-110.92-43.86-24.69-144.29-114.3-210.93-210.96-71.68-103.94-112.16-186.59-169.62-302.3-36.96,17.4-64.193,34.64-104.376,52.2-28.8,12.58-96.844-19.02-143.52-36.98-28.3-10.88-165.516-20.42-193.535-26.09-24.73-5.01-28.4-17.03-6.523-17.4,24.188-.42,53.524-4,80.458-6.53,12.013-1.12,19.9-13.45,15.222-23.92-19.317-43.25-67.463-82.64-89.157-108.74-15.521-18.68-6.277-24.55,8.7-13.05,13.02,9.99,55.744,31.76,100.029,58.72,18.668,11.36,42.564,6.82,45.665-10.88,5.383-30.7,3.367-62.27,4.349-80.46,1.171-21.68,14.062-18.49,21.746,10.87,6.048,23.11,7.819,43.88,15.222,84.82,3.721,20.58-1,44.84,30.443,47.85,28.277,2.7,51.526-1.78,97.855-28.28,18.216-10.42,37.1-21.32,52.189-36.97-47.192-75.04-99.922-146.615-163.091-208.785C755.127,820.3,689.149,765.794,613.5,714.482c-21.557,18.874-28.585,44.265-30.443,67.42-1.957,24.379,6.309,32.563,17.4,60.9,13.38,34.193,15.378,67.56,13.047,80.469-3.529,19.545-18.963,57.013-54.364,86.993-43.708,37.02-99.457,55.17-126.123,63.07-35.082,10.4-35.57-9.47-19.571-17.4,11.357-5.63,41.234-20.98,63.062-36.97,18.777-13.76,1.9-30.372-21.746-34.8-40.134-7.51-91.476-12.62-119.6-17.4-30.171-5.126-29.16-15.96,4.349-19.573,30.992-3.342,70.329-8.838,108.728-15.224,20.267-3.371,20.126-13.451,4.349-30.448C428.9,876,402.906,852.956,389.521,838.448c-11.035-11.959-4.5-17.735,12.056-9,29.462,15.548,44.395,26.815,72.751,45.97,11.923,8.054,34.187-2.22,28.269-17.4C491.632,829.9,465.061,794.4,465.63,768.853c0.786-35.294,14.213-76.832,33.264-138.51-39.788-20.978-74.581-41.277-113.722-61.575-63.013-13.67-146.164-11.569-173.964-34.8-57.228-47.817-98.529-97.8-134.822-163.113-20.243-36.431-36.425-84.9-21.745-108.743,20.421-33.165,84.043-30.247,141.346-30.447,42.523-.149,129.931,4.691,163.091,17.4,24.3,9.314,42.555,36.707,78.284,76.12,27.987,30.873,71.177,74.66,80.458,78.294,36.912,14.455,71.059,29.129,108.727,43.5,16.333-23.92,35.446-49.058,39.142-76.119,3.583-26.223-14.951-44.339-30.443-50.022-71.927-26.381-126.19-31.608-163.092-41.322-20.132-5.3-22.431-14.737-4.349-15.224,17.085-.46,47.928-2.012,80.459-4.349,18.19-1.307,22-18.337,15.222-28.273-30.21-44.307-60.178-66.036-82.633-93.519-11.47-14.038-2.3-24.086,10.873-15.224,33.709,22.675,54.96,39.746,95.68,63.071,17.887,10.246,44.683,10.184,43.491-17.4-1.318-30.491-10.389-50.875-17.4-78.294-5.394-21.1,11.976-23.936,17.4-13.049C651.23,118.1,661.943,154.489,667.863,175.121ZM261.222,270.814a30.448,30.448,0,1,1-30.443,30.448A30.446,30.446,0,0,1,261.222,270.814ZM193.811,399.13a30.448,30.448,0,1,1-30.443,30.448A30.446,30.446,0,0,1,193.811,399.13Z"/>
</svg>
