<svg xmlns="http://www.w3.org/2000/svg" width="1200" height="1200" viewBox="0 0 1200 1200">
  <defs>
    <style>
      .newt-cls-1 {
        fill: #fff;
      }

      .newt-cls-1, .newt-cls-2 {
        stroke: #000;
        stroke-width: 1px;
        fill-rule: evenodd;
      }

      .newt-cls-2 {
        fill: #c00;
      }
    </style>
  </defs>
  <path id="background" class="newt-cls-1" d="M1200,0H1V1200H1200V0Z"/>
  <path id="newt" class="newt-cls-2" d="M532.137,175.12c-10.093,35.175-11.542,59.963-32.618,69.6-23.153,10.582-67.477,27.317-93.506,58.72-47.6,57.426-35.837,98.565,23.92,191.387-110.9,54.027-200.4,103.484-287.04,182.687C68.42,745.589,12.728,847.189-20.2,942.841c-39.7-.86-69.491-0.819-104.379,0-12.294.288-45.861,7.155-67.411,21.748-31.657,21.439-43.641,49.071-60.887,65.241-11.723,11-26.84,4.43-30.444-6.52-3.418-10.38-30.865-87.744-41.316-106.567-7.812-14.07-16.808-6.529-15.222,8.7,2.893,27.776,9.219,53.4,10.873,84.818,1.053,20-21.86,27.39-39.142,26.1-43.733-3.27-77.667-18.09-106.553-23.92-19.989-4.04-26.439,5.32-8.7,17.39,21.851,14.87,86.13,49.98,115.251,73.95,6.243,5.14,10.724,23.93,2.174,30.45-26.576,20.25-50.762,33.7-69.585,47.84-5.708,4.29-17.748,19.09,13.047,10.88,42.259-11.27,149.257-62.24,182.662-73.95,59.421-20.81,113.555-22.64,178.313-13.05-45.746,195.17-94.353,395.21-228.327,506.74-222.753,185.44-254.307,123.91-408.816,204.44-88.788,46.27-149.955,101.72-206.582,180.51-50.522,70.29-65.3,137.35-71.76,228.36,30.256-91.9,62.859-170.85,134.822-241.41,55.343-54.26,160.183-112.31,273.993-126.14,99.779-12.12,233.968-55.33,332.706-110.92,43.856-24.69,144.284-114.3,210.932-210.96,71.674-103.94,112.155-186.59,169.614-302.3,36.968,17.4,64.2,34.64,104.379,52.2,28.8,12.58,96.844-19.02,143.52-36.98,28.3-10.88,165.516-20.42,193.535-26.09,24.73-5.01,28.4-17.03,6.523-17.4-24.188-.42-53.524-4-80.458-6.53-12.013-1.12-19.9-13.45-15.222-23.92,19.317-43.25,67.463-82.64,89.157-108.74,15.521-18.68,6.277-24.55-8.7-13.05-13.021,9.99-55.745,31.76-100.03,58.72-18.668,11.36-42.564,6.82-45.665-10.88-5.383-30.7-3.367-62.27-4.349-80.46-1.171-21.68-14.062-18.49-21.746,10.87-6.048,23.11-7.819,43.88-15.222,84.82-3.721,20.58,1,44.84-30.443,47.85-28.277,2.7-51.526-1.78-97.855-28.28-18.216-10.42-37.1-21.32-52.189-36.97C257.5,1024.39,310.226,952.815,373.4,890.645,444.873,820.3,510.851,765.794,586.5,714.482c21.557,18.874,28.585,44.265,30.443,67.42,1.957,24.379-6.309,32.563-17.4,60.9-13.38,34.193-15.378,67.56-13.047,80.469,3.529,19.545,18.963,57.013,54.364,86.993,43.708,37.02,99.457,55.17,126.123,63.07,35.082,10.4,35.57-9.47,19.571-17.4-11.357-5.63-41.234-20.98-63.062-36.97-18.777-13.76-1.9-30.372,21.746-34.8,40.134-7.51,91.476-12.62,119.6-17.4,30.172-5.126,29.16-15.96-4.349-19.573-30.992-3.342-70.329-8.838-108.728-15.224-20.267-3.371-20.126-13.452-4.349-30.448C771.1,876,797.094,852.956,810.479,838.448c11.035-11.959,4.5-17.735-12.056-9-29.462,15.549-44.395,26.816-72.751,45.971-11.923,8.054-34.187-2.22-28.269-17.4,10.965-28.126,37.536-63.622,36.967-89.169-0.786-35.294-14.213-76.832-33.264-138.51,39.788-20.978,74.581-41.277,113.722-61.575,63.013-13.67,146.165-11.569,173.964-34.8,57.228-47.817,98.528-97.8,134.818-163.113,20.25-36.431,36.43-84.9,21.75-108.743-20.42-33.165-84.04-30.247-141.35-30.447-42.519-.149-129.927,4.691-163.087,17.4-24.3,9.314-42.555,36.707-78.284,76.12-27.987,30.873-71.177,74.66-80.458,78.294-36.912,14.455-71.058,29.129-108.727,43.5-16.333-23.921-35.446-49.058-39.142-76.119-3.583-26.223,14.951-44.339,30.443-50.022,71.927-26.381,126.19-31.608,163.092-41.322,20.132-5.3,22.431-14.737,4.349-15.224-17.085-.46-47.928-2.012-80.459-4.349-18.19-1.307-22-18.337-15.222-28.273,30.21-44.307,60.178-66.036,82.633-93.519,11.47-14.038,2.3-24.086-10.873-15.224C674.566,145.6,653.315,162.67,612.6,186c-17.887,10.245-44.683,10.184-43.491-17.4,1.318-30.491,10.389-50.875,17.4-78.294,5.394-21.1-11.976-23.936-17.4-13.049C548.77,118.1,538.057,154.489,532.137,175.12Zm406.641,95.694a30.448,30.448,0,1,0,30.443,30.448A30.446,30.446,0,0,0,938.778,270.814ZM1006.19,399.13a30.448,30.448,0,1,0,30.44,30.448A30.446,30.446,0,0,0,1006.19,399.13Z"/>
</svg>
